<svg width="34" height="34" viewBox="0 0 34 34" fill="none" xmlns="http://www.w3.org/2000/svg">
<path d="M29.5237 6.53086C28.8001 5.80695 27.941 5.23269 26.9954 4.84089C26.0498 4.4491 25.0364 4.24744 24.0128 4.24744C22.9893 4.24744 21.9758 4.4491 21.0302 4.84089C20.0847 5.23269 19.2256 5.80695 18.502 6.53086L17.0003 8.03252L15.4987 6.53086C14.0371 5.06929 12.0548 4.24819 9.98783 4.24819C7.92087 4.24819 5.93856 5.06929 4.477 6.53086C3.01543 7.99242 2.19434 9.97473 2.19434 12.0417C2.19434 14.1087 3.01543 16.091 4.477 17.5525L17.0003 30.0759L29.5237 17.5525C30.2476 16.829 30.8218 15.9698 31.2136 15.0243C31.6054 14.0787 31.8071 13.0652 31.8071 12.0417C31.8071 11.0182 31.6054 10.0047 31.2136 9.0591C30.8218 8.11354 30.2476 7.25443 29.5237 6.53086Z" fill="#FE4545" stroke="#1E1E1E" stroke-width="3" stroke-linecap="round" stroke-linejoin="round"/>
</svg>
