<svg width="32" height="32" viewBox="0 0 32 32" fill="none" xmlns="http://www.w3.org/2000/svg">
<path d="M23.3337 8.66669H23.347M9.33366 2.66669H22.667C26.3489 2.66669 29.3337 5.65146 29.3337 9.33335V22.6667C29.3337 26.3486 26.3489 29.3334 22.667 29.3334H9.33366C5.65176 29.3334 2.66699 26.3486 2.66699 22.6667V9.33335C2.66699 5.65146 5.65176 2.66669 9.33366 2.66669ZM21.3337 15.16C21.4982 16.2697 21.3087 17.403 20.792 18.3987C20.2753 19.3944 19.4579 20.2019 18.4558 20.7063C17.4538 21.2106 16.3183 21.3861 15.2107 21.2079C14.1032 21.0297 13.08 20.5068 12.2868 19.7136C11.4935 18.9203 10.9706 17.8972 10.7924 16.7896C10.6142 15.6821 10.7897 14.5465 11.2941 13.5445C11.7984 12.5425 12.6059 11.725 13.6016 11.2083C14.5974 10.6917 15.7307 10.5021 16.8403 10.6667C17.9722 10.8345 19.0201 11.362 19.8292 12.1711C20.6384 12.9802 21.1658 14.0281 21.3337 15.16Z" stroke="#8E4EA0" stroke-width="2" stroke-linecap="round" stroke-linejoin="round"/>
</svg>
