<svg width="20" height="20" viewBox="0 0 20 20" fill="none" xmlns="http://www.w3.org/2000/svg">
<g clip-path="url(#clip0_190_525)">
<path d="M14.5832 5.41675H14.5915M5.83317 1.66675H14.1665C16.4677 1.66675 18.3332 3.53223 18.3332 5.83341V14.1667C18.3332 16.4679 16.4677 18.3334 14.1665 18.3334H5.83317C3.53198 18.3334 1.6665 16.4679 1.6665 14.1667V5.83341C1.6665 3.53223 3.53198 1.66675 5.83317 1.66675ZM13.3332 9.47508C13.436 10.1686 13.3176 10.8769 12.9946 11.4993C12.6717 12.1216 12.1608 12.6263 11.5345 12.9415C10.9083 13.2567 10.1985 13.3664 9.50633 13.255C8.81411 13.1436 8.17464 12.8168 7.67887 12.321C7.1831 11.8253 6.85628 11.1858 6.74489 10.4936C6.63351 9.80137 6.74322 9.09166 7.05844 8.46539C7.37366 7.83913 7.87833 7.3282 8.50066 7.00528C9.12299 6.68237 9.8313 6.5639 10.5248 6.66675C11.2323 6.77165 11.8872 7.1013 12.3929 7.607C12.8986 8.11271 13.2283 8.76765 13.3332 9.47508Z" stroke="white" stroke-width="2" stroke-linecap="round" stroke-linejoin="round"/>
</g>
<defs>
<clipPath id="clip0_190_525">
<rect width="20" height="20" fill="white"/>
</clipPath>
</defs>
</svg>
