<svg width="32" height="32" viewBox="0 0 32 32" fill="none" xmlns="http://www.w3.org/2000/svg">
<path d="M15.9997 16C16.733 16 17.3608 15.7389 17.883 15.2167C18.4052 14.6945 18.6663 14.0667 18.6663 13.3334C18.6663 12.6 18.4052 11.9722 17.883 11.45C17.3608 10.9278 16.733 10.6667 15.9997 10.6667C15.2663 10.6667 14.6386 10.9278 14.1163 11.45C13.5941 11.9722 13.333 12.6 13.333 13.3334C13.333 14.0667 13.5941 14.6945 14.1163 15.2167C14.6386 15.7389 15.2663 16 15.9997 16ZM15.9997 25.8C18.7108 23.3111 20.7219 21.05 22.033 19.0167C23.3441 16.9834 23.9997 15.1778 23.9997 13.6C23.9997 11.1778 23.2275 9.19446 21.683 7.65002C20.1386 6.10558 18.2441 5.33335 15.9997 5.33335C13.7552 5.33335 11.8608 6.10558 10.3163 7.65002C8.7719 9.19446 7.99967 11.1778 7.99967 13.6C7.99967 15.1778 8.65523 16.9834 9.96634 19.0167C11.2775 21.05 13.2886 23.3111 15.9997 25.8ZM15.9997 29.3334C12.4219 26.2889 9.74967 23.4611 7.98301 20.85C6.21634 18.2389 5.33301 15.8222 5.33301 13.6C5.33301 10.2667 6.40523 7.61113 8.54967 5.63335C10.6941 3.65558 13.1775 2.66669 15.9997 2.66669C18.8219 2.66669 21.3052 3.65558 23.4497 5.63335C25.5941 7.61113 26.6663 10.2667 26.6663 13.6C26.6663 15.8222 25.783 18.2389 24.0163 20.85C22.2497 23.4611 19.5775 26.2889 15.9997 29.3334Z" fill="#8E4EA0"/>
</svg>
