<svg width="26" height="34" viewBox="0 0 26 34" fill="none" xmlns="http://www.w3.org/2000/svg">
<path d="M2 8V31.5C2 32.0523 2.44772 32.5 3 32.5H22.5C23.0523 32.5 23.5 32.0523 23.5 31.5V9C23.5 8.44771 23.0523 8 22.5 8H19M2 8L17.6672 2.47041C18.3178 2.24078 19 2.72344 19 3.4134V8M2 8H19" stroke="#8E4EA0" stroke-width="2"/>
<path d="M6.5 19H7.5M19.5 19H18.5M18.5 19H7.5M18.5 19C18.5 19 17.8972 16.0479 16.5 15C15.512 14.259 13.5 14 13.5 14M7.5 19C7.5 19 7.94848 16.5515 9 15.5C10.0515 14.4485 12.5 14 12.5 14M12.5 14V12.5C12.5 12.2239 12.7239 12 13 12C13.2761 12 13.5 12.2239 13.5 12.5V14M12.5 14C12.7761 13.7239 13.2239 13.7239 13.5 14" stroke="#8E4EA0" stroke-width="2" stroke-linecap="round"/>
<path d="M6 23H12.5" stroke="#8E4EA0" stroke-width="2" stroke-linecap="round"/>
<path d="M6 27H20" stroke="#8E4EA0" stroke-width="2" stroke-linecap="round"/>
</svg>
